<?xml version="1.0" encoding="utf-8"?>
<!-- Svg Vector Icons : http://www.onlinewebfonts.com/icon -->
<!DOCTYPE svg PUBLIC "-//W3C//DTD SVG 1.1//EN" "http://www.w3.org/Graphics/SVG/1.1/DTD/svg11.dtd">
<svg version="1.1" xmlns="http://www.w3.org/2000/svg" xmlns:xlink="http://www.w3.org/1999/xlink" x="0px" y="0px" viewBox="0 0 256 256" enable-background="new 0 0 256 256" xml:space="preserve">
<metadata> Svg Vector Icons : http://www.onlinewebfonts.com/icon </metadata>
<g><g><path fill="#000000" d="M214.5,17.9h-39.3c-17.4,0-31.5,14.1-31.5,31.5v39.3c0,17.4,14.1,31.5,31.5,31.5h39.3c17.4,0,31.5-14.1,31.5-31.5V49.3C246,32,231.9,17.9,214.5,17.9z M230.2,82.6c0,12-9.7,21.7-21.7,21.7h-27.1c-12,0-21.7-9.7-21.7-21.7V55.4c0-12,9.7-21.7,21.7-21.7h27.1c12,0,21.7,9.7,21.7,21.7V82.6z"/><path fill="#000000" d="M214.5,135.9h-39.3c-17.4,0-31.5,14.1-31.5,31.5v39.3c0,17.4,14.1,31.5,31.5,31.5h39.3c17.4,0,31.5-14.1,31.5-31.5v-39.3C246,150,231.9,135.9,214.5,135.9z M230.2,200.6c0,12-9.7,21.7-21.7,21.7h-27.1c-12,0-21.7-9.7-21.7-21.7v-27.1c0-12,9.7-21.7,21.7-21.7h27.1c12,0,21.7,9.7,21.7,21.7V200.6z"/><path fill="#000000" d="M80.8,135.9H41.5C24.1,135.9,10,150,10,167.3v39.3c0,17.4,14.1,31.5,31.5,31.5h39.3c17.4,0,31.5-14.1,31.5-31.5v-39.3C112.3,150,98.2,135.9,80.8,135.9z M96.4,200.6c0,12-9.7,21.7-21.7,21.7H47.6c-12,0-21.7-9.7-21.7-21.7v-27.1c0-12,9.7-21.7,21.7-21.7h27.1c12,0,21.7,9.7,21.7,21.7V200.6z"/><path fill="#000000" d="M80.8,17.9H41.5C24.1,17.9,10,32,10,49.3v39.3c0,17.4,14.1,31.5,31.5,31.5h39.3c17.4,0,31.5-14.1,31.5-31.5V49.3C112.3,32,98.2,17.9,80.8,17.9z M96.4,82.6c0,12-9.7,21.7-21.7,21.7H47.6c-12,0-21.7-9.7-21.7-21.7V55.4c0-12,9.7-21.7,21.7-21.7h27.1c12,0,21.7,9.7,21.7,21.7V82.6z"/></g></g>
</svg>